<?xml version="1.0" encoding="UTF-8" standalone="no"?>
<!-- Created with Inkscape (http://www.inkscape.org/) -->

<svg
   xmlns:dc="http://purl.org/dc/elements/1.1/"
   xmlns:cc="http://creativecommons.org/ns#"
   xmlns:rdf="http://www.w3.org/1999/02/22-rdf-syntax-ns#"
   xmlns:svg="http://www.w3.org/2000/svg"
   xmlns="http://www.w3.org/2000/svg"
   xmlns:sodipodi="http://sodipodi.sourceforge.net/DTD/sodipodi-0.dtd"
   xmlns:inkscape="http://www.inkscape.org/namespaces/inkscape"
   width="69.320419mm"
   height="99.030243mm"
   viewBox="0 0 69.320419 99.030243"
   version="1.1"
   id="svg8"
   inkscape:version="0.92.5 (2060ec1f9f, 2020-04-08)"
   sodipodi:docname="riverbots.svg">
  <defs
     id="defs2" />
  <sodipodi:namedview
     id="base"
     pagecolor="#ffffff"
     bordercolor="#666666"
     borderopacity="1.0"
     inkscape:pageopacity="0.0"
     inkscape:pageshadow="2"
     inkscape:zoom="0.35"
     inkscape:cx="-100.42857"
     inkscape:cy="-200.64877"
     inkscape:document-units="mm"
     inkscape:current-layer="layer1"
     showgrid="false"
     fit-margin-top="0"
     fit-margin-left="0"
     fit-margin-right="0"
     fit-margin-bottom="0"
     inkscape:window-width="1920"
     inkscape:window-height="1031"
     inkscape:window-x="0"
     inkscape:window-y="25"
     inkscape:window-maximized="1" />
  <metadata
     id="metadata5">
    <rdf:RDF>
      <cc:Work
         rdf:about="">
        <dc:format>image/svg+xml</dc:format>
        <dc:type
           rdf:resource="http://purl.org/dc/dcmitype/StillImage" />
        <dc:title></dc:title>
      </cc:Work>
    </rdf:RDF>
  </metadata>
  <g
     inkscape:label="Layer 1"
     inkscape:groupmode="layer"
     id="layer1"
     transform="translate(-0.11339286,0.26141714)">
    <path
       style="fill:#000000;stroke-width:0.26458335"
       d="m 22.750273,98.20125 c -0.22653,-0.32342 -0.41188,-1.01934 -0.41188,-1.54649 0,-1.6854 1.54791,-2.42259 2.63553,-1.25517 0.69119,0.74192 0.68767,1.80701 -0.009,2.69256 -0.67491,0.858 -1.65634,0.90635 -2.21475,0.1091 z m 21.81312,0.0589 c -0.69173,-0.69173 -0.71742,-2.39345 -0.0453,-3.0017 0.26612,-0.24084 0.79515,-0.43788 1.17562,-0.43788 1.39487,0 2.04159,2.24597 0.97605,3.38969 -0.6716,0.72088 -1.41769,0.73855 -2.10636,0.0499 z M 21.544643,82.6497 V 71.00804 h 13.22917 13.22916 V 82.6497 94.29137 h -13.22916 -13.22917 z m 8.4078,0.64646 c 0.40212,-0.28166 0.58803,-0.68318 0.58803,-1.27 0,-1.01537 -0.4022,-1.49312 -1.257,-1.49312 h -0.62201 l 0.72541,-0.95106 0.72541,-0.95106 -0.62155,0.0912 c -0.70142,0.10288 -2.38984,2.34586 -2.38984,3.17479 0,0.64776 1.14415,1.81117 1.78119,1.81117 0.26527,0 0.74694,-0.18535 1.07036,-0.41188 z m -1.77918,-0.76184 c -0.23794,-0.2867 -0.24152,-0.5179 -0.0145,-0.942 0.33717,-0.63002 0.99686,-0.61628 1.40332,0.0292 0.61208,0.97208 -0.65073,1.80206 -1.38878,0.91277 z m 5.74793,0.76184 c 0.59279,-0.41521 0.80287,-1.54078 0.34087,-1.82632 -0.13594,-0.084 -0.18005,-0.56628 -0.098,-1.0717 0.0904,-0.55706 0.0187,-1.07614 -0.18211,-1.31807 -0.39567,-0.47676 -1.88295,-0.52886 -2.33019,-0.0816 -0.39073,0.39073 -0.41377,1.33249 -0.0417,1.70455 0.19134,0.19134 0.15083,0.37951 -0.13229,0.61448 -0.94445,0.78382 -0.0628,2.39056 1.3117,2.39056 0.29905,0 0.80834,-0.18535 1.13176,-0.41188 z m -1.86771,-0.7126 c -0.1655,-0.46159 0.28554,-1.25677 0.71286,-1.25677 0.52646,0 0.98205,0.66469 0.7931,1.15709 -0.19384,0.50514 -1.33353,0.58057 -1.50596,0.0997 z m 0.3552,-2.04056 c -0.50539,-0.31235 -0.22101,-1.20059 0.38438,-1.20059 0.33411,0 0.55473,0.20458 0.60567,0.56164 0.0874,0.61256 -0.46056,0.9662 -0.99005,0.63895 z m 5.54013,2.50358 c 0,-0.41158 0.14993,-0.66146 0.39687,-0.66146 0.21828,0 0.39688,-0.1228 0.39688,-0.27289 0,-0.15009 -0.1786,-0.34142 -0.39688,-0.42518 -0.28489,-0.10932 -0.39687,-0.55491 -0.39687,-1.5792 0,-1.08708 -0.0938,-1.4269 -0.39384,-1.4269 -0.45772,0 -2.83018,3.14622 -2.62401,3.47982 0.0763,0.12339 0.60788,0.22435 1.18138,0.22435 0.83473,0 1.04272,0.0968 1.04272,0.48507 0,0.26679 0.0794,0.56444 0.17639,0.66146 0.35972,0.35973 0.61736,0.1573 0.61736,-0.48507 z m -1.54567,-2.24896 c 0.32277,-0.43656 0.62399,-0.79375 0.66938,-0.79375 0.0454,0 0.0825,0.35719 0.0825,0.79375 0,0.67278 -0.10201,0.79375 -0.66938,0.79375 h -0.66937 z m 5.19096,2.49854 c 0.40693,-0.28503 0.58804,-0.68249 0.58804,-1.29052 0,-0.97305 -0.31544,-1.34247 -1.37293,-1.60789 -0.93756,-0.23531 -0.68906,-0.86753 0.38289,-0.97411 1.4451,-0.14368 1.19441,-0.74269 -0.31083,-0.74269 -1.21732,0 -1.34531,0.0565 -1.34857,0.59532 -0.002,0.32742 -0.0733,0.85531 -0.15857,1.17308 -0.1373,0.51195 -0.0389,0.58731 0.86351,0.66146 0.93664,0.077 1.01846,0.14745 1.01846,0.87743 0,0.72462 -0.0807,0.79656 -0.92604,0.82601 -1.42106,0.0495 -1.49315,0.0882 -0.94162,0.50533 0.66368,0.50198 1.46773,0.49344 2.20566,-0.0234 z m -27.82085,7.15147 c -0.50862,-1.32545 0.21927,-2.77084 1.39539,-2.77084 0.98216,0 1.6135,0.75262 1.6135,1.92344 0,1.20792 -0.40111,1.468 -1.04325,0.67643 l -0.4993,-0.6155 -0.65012,0.60967 c -0.56926,0.53383 -0.67078,0.55582 -0.81622,0.1768 z m 39.17103,0.23019 c -0.34378,-0.34379 -0.1762,-2.17209 0.23697,-2.58526 0.55045,-0.55045 1.51773,-0.52801 2.03614,0.0473 0.5528,0.61341 0.78969,1.69155 0.47728,2.17229 -0.21507,0.33097 -0.32963,0.31525 -0.79915,-0.10966 -0.53718,-0.48614 -0.56028,-0.48457 -1.16026,0.0791 -0.33669,0.31631 -0.69263,0.49464 -0.79098,0.3963 z M 13.871723,79.07783 v -8.06979 h 3.3073 3.30729 v 1.4552 1.45521 h -2.11667 -2.11667 v 6.61459 6.61458 h -1.19062 -1.19063 z m 39.42292,1.47042 v -6.6298 h -2.11667 -2.11666 V 72.4551 70.99175 l 3.24114,0.0743 3.24115,0.0743 v 7.9375 7.9375 l -1.12448,0.0814 -1.12448,0.0814 z m -41.275,-24.48917 c 0,-7.20328 0.0379,-13.09688 0.0843,-13.09688 0.0463,0 0.73096,0.19188 1.52135,0.42638 2.97841,0.8837 5.20494,2.40184 6.712,4.57653 l 0.72306,1.04337 -1.12211,1.01176 c -1.56529,1.41135 -2.08611,2.68782 -2.08611,5.1128 0,2.7709 0.73933,4.29578 2.74159,5.65456 2.5491,1.72986 5.94913,0.18321 7.16347,-3.2586 1.06142,-3.00838 -0.24287,-6.99437 -2.66694,-8.15033 -0.49486,-0.23598 -0.89975,-0.50566 -0.89975,-0.59928 0,-0.0936 0.38672,-0.75617 0.85936,-1.47235 1.31171,-1.98754 3.87638,-4.3876 5.63241,-5.27088 1.40408,-0.70626 1.84051,-0.79375 3.95928,-0.79375 2.11846,0 2.57104,0.0907 4.10104,0.82188 1.88005,0.89847 4.12097,2.99507 5.68744,5.32114 0.50992,0.7572 0.92714,1.42805 0.92714,1.49078 0,0.0627 -0.28723,0.18613 -0.63829,0.27425 -0.88041,0.22096 -2.64266,2.29309 -3.0193,3.55022 -0.78959,2.63539 -0.0563,5.86301 1.7059,7.50875 1.94754,1.81884 4.67651,1.72453 6.48555,-0.22413 1.33833,-1.44162 1.67935,-2.42751 1.67839,-4.85226 -10e-4,-2.6038 -0.55517,-3.97268 -2.11056,-5.21374 -0.50967,-0.40666 -0.92668,-0.83178 -0.92668,-0.9447 -1e-5,-0.11292 0.4296,-0.78075 0.95467,-1.48407 1.43823,-1.92644 4.55055,-3.79154 7.31355,-4.38273 l 0.7276,-0.15568 v 13.10192 13.10191 h -22.75416 -22.75417 z m 9.93964,-7.34219 c -2.87743,-5.0168 -7.91837,-7.75233 -12.5915301,-6.83294 -3.30704,0.65062 -6.36419,2.73265 -8.35653,5.69112 -0.49381004,0.73326 -0.89783004,1.25498 -0.89783004,1.15937 0,-0.0956 0.36712,-1.22511 0.81582,-2.51001 1.06779004,-3.05777 3.35889004,-7.4002 5.19864004,-9.85326 l 1.47058,-1.96082 0.50466,1.64394 c 1.41353,4.6046 6.6999201,5.77685 9.7870101,2.17028 1.89739,-2.21668 2.02179,-5.35855 0.36732,-9.27725 -0.52036,-1.23251 -0.94611,-2.3761 -0.94611,-2.54132 0,-0.37692 4.04466,-2.26186 6.40283,-2.98392 3.45856,-1.059 5.88536,-1.36205 10.89046,-1.35996 4.50535,0.002 6.97303,0.21663 9.17239,0.79824 l 0.93339,0.24683 10e-4,1.92386 c 0.002,3.36757 1.66079,5.6813 4.53253,6.32397 1.97837,0.44274 3.28997,0.005 4.94971,-1.65339 l 1.29627,-1.29492 1.34956,1.04581 c 4.70177,3.64351 9.53228,10.6319 11.77594,17.03649 0.45013,1.28491 0.81842,2.3998 0.81842,2.47755 0,0.0777 -0.48479,-0.58462 -1.07731,-1.47193 -2.72661,-4.08311 -7.46666,-6.36278 -11.68884,-5.62159 -3.50315,0.61496 -7.29567,3.35489 -8.92923,6.45095 -0.36356,0.68904 -0.72074,1.25252 -0.79375,1.25219 -0.073,-2.7e-4 -0.48372,-0.72044 -0.91267,-1.60023 -0.92336,-1.89381 -3.08897,-4.37027 -4.83034,-5.52371 -3.34947,-2.2186 -8.23129,-2.46852 -11.87063,-0.60771 -2.31155,1.18191 -4.69935,3.69086 -6.03691,6.34319 -0.38527,0.76399 -0.73234,1.38907 -0.77128,1.38907 -0.0389,0 -0.29273,-0.38696 -0.56399,-0.8599 z M 11.346913,38.76514 C 8.6881129,37.14375 7.8589229,33.77766 9.2245729,30.14948 c 1.0154301,-2.69776 3.8568701,-7.59833 4.3505301,-7.50326 0.46972,0.0905 2.8804,4.19303 4.01696,6.83619 0.41003,0.95357 0.82544,2.33628 0.92313,3.07269 0.33071,2.49307 -0.93964,5.34849 -2.80976,6.31557 -1.06681,0.55166 -3.37237,0.49584 -4.35852,-0.10553 z m 36.00321,-9.317 c -2.1134,-1.94807 -2.54684,-4.98401 -1.18699,-8.31406 0.80406,-1.969012 3.77356,-7.347352 4.12047,-7.462992 0.30278,-0.10093 3.78824,6.0888 4.50042,7.992152 0.31513,0.84221 0.49214,1.99591 0.48714,3.175 -0.009,2.19803 -0.63743,3.613 -2.16142,4.8692 -0.89549,0.73815 -1.17215,0.81935 -2.79171,0.81935 -1.73523,0 -1.83839,-0.0375 -2.96791,-1.07865 z m -14.33519,-9.243132 c 0.0876,-0.43823 0.29421,-1.59909 0.45903,-2.57969 0.44787,-2.66461 0.55327,-2.74906 0.9043,-0.72458 0.17662,1.01865 0.41262,2.3581 0.52445,2.97657 l 0.20331,1.124482 h -1.12522 c -1.11008,0 -1.12308,-0.0107 -0.96587,-0.796782 z m -5.11242,-3.84121 c -1.32169,-0.59387 -1.85438,-1.14358 -2.55633,-2.63805 -0.89155,-1.89814 -0.84831,-4.03105 0.1324,-6.53159 0.83317,-2.12433 3.75878,-7.39643 4.1368,-7.45472 0.60064,-0.0926 4.39326,7.3616 4.85613,9.5445 0.55703,2.62698 -0.54667,5.60112 -2.50247,6.74336 -1.17446,0.68593 -2.96004,0.83368 -4.06653,0.3365 z"
       id="path837"
       inkscape:connector-curvature="0" />
  </g>
</svg>
